HIERARCHY
ROOT root
{
	OFFSET 0.000000 0.000000 0.000000
	CHANNELS 6 Xposition Yposition Zposition Zrotation Yrotation Xrotation
	JOINT lhip
	{
		OFFSET 0.058581 -0.082280 -0.017664
		CHANNELS 3 Zrotation Yrotation Xrotation
		JOINT lknee
		{
			OFFSET 0.043451 -0.386469 0.008037
			CHANNELS 3 Zrotation Yrotation Xrotation
			JOINT lankle
			{
				OFFSET -0.014790 -0.426874 -0.037428
				CHANNELS 3 Zrotation Yrotation Xrotation
				JOINT ltoe
				{
					OFFSET 0.041054 -0.060286 0.122042
					CHANNELS 3 Zrotation Yrotation Xrotation
					End Site
					{
						OFFSET 0.000000 0.000000 0.000000
					}
				}
			}
		}
	}
	JOINT rhip
	{
		OFFSET -0.060310 -0.090513 -0.013543
		CHANNELS 3 Zrotation Yrotation Xrotation
		JOINT rknee
		{
			OFFSET -0.043257 -0.383688 -0.004843
			CHANNELS 3 Zrotation Yrotation Xrotation
			JOINT rankle
			{
				OFFSET 0.019056 -0.420046 -0.034562
				CHANNELS 3 Zrotation Yrotation Xrotation
				JOINT rtoe
				{
					OFFSET -0.034840 -0.062106 0.130323
					CHANNELS 3 Zrotation Yrotation Xrotation
					End Site
					{
						OFFSET 0.000000 0.000000 0.000000
					}
				}
			}
		}
	}
	JOINT lowerback
	{
		OFFSET 0.004439 0.124404 -0.038385
		CHANNELS 3 Zrotation Yrotation Xrotation
		JOINT upperback
		{
			OFFSET 0.004488 0.137956 0.026820
			CHANNELS 3 Zrotation Yrotation Xrotation
			JOINT chest
			{
				OFFSET -0.002265 0.056032 0.002855
				CHANNELS 3 Zrotation Yrotation Xrotation
				JOINT lowerneck
				{
					OFFSET -0.013390 0.211636 -0.033468
					CHANNELS 3 Zrotation Yrotation Xrotation
					JOINT upperneck
					{
						OFFSET 0.010113 0.088937 0.050410
						CHANNELS 3 Zrotation Yrotation Xrotation
						End Site
						{
							OFFSET 0.000000 0.000000 0.000000
						}
					}
				}
				JOINT lclavicle
				{
					OFFSET 0.071702 0.114000 -0.018898
					CHANNELS 3 Zrotation Yrotation Xrotation
					JOINT lshoulder
					{
						OFFSET 0.122921 0.045205 -0.019046
						CHANNELS 3 Zrotation Yrotation Xrotation
						JOINT lelbow
						{
							OFFSET 0.255332 -0.015649 -0.022946
							CHANNELS 3 Zrotation Yrotation Xrotation
							JOINT lwrist
							{
								OFFSET 0.265709 0.012698 -0.007375
								CHANNELS 3 Zrotation Yrotation Xrotation
								End Site
								{
									OFFSET 0.000000 0.000000 0.000000
								}
							}
						}
					}
				}
				JOINT rclavicle
				{
					OFFSET -0.082954 0.112472 -0.023707
					CHANNELS 3 Zrotation Yrotation Xrotation
					JOINT rshoulder
					{
						OFFSET -0.113228 0.046853 -0.008472
						CHANNELS 3 Zrotation Yrotation Xrotation
						JOINT relbow
						{
							OFFSET -0.260127 -0.014369 -0.031269
							CHANNELS 3 Zrotation Yrotation Xrotation
							JOINT rwrist
							{
								OFFSET -0.269108 0.006794 -0.006027
								CHANNELS 3 Zrotation Yrotation Xrotation
								End Site
								{
									OFFSET 0.000000 0.000000 0.000000
								}
							}
						}
					}
				}
			}
		}
	}
}
MOTION
Frames: 11
Frame Time: 0.033333
-0.099013 -0.113884 0.918982 101.978727 -2.831139 94.735967 -8.523886 -9.551903 -15.940402 -6.925855 -0.062173 31.642928 13.954761 19.777708 -29.525762 0.000000 -0.000000 0.000000 -6.240502 -0.458640 -34.705815 0.537714 -5.178832 90.806303 3.895667 -14.757579 -4.980646 0.000000 -0.000000 0.000000 -3.103126 -2.129301 18.889119 0.954949 0.231897 -7.511858 -0.464262 -0.825855 2.650776 0.243761 -1.760592 -22.852668 -0.140458 3.103651 -0.248597 -26.248153 6.557122 -4.566594 -48.198738 -10.112271 13.929757 164.060545 -75.356496 -145.545282 16.578711 -12.537968 -20.472058 26.617583 -4.973597 -2.901960 53.544877 -8.109109 22.449437 -39.657563 78.184376 -25.787748 -8.792106 18.970733 -3.787076 
0.064445 -0.085578 0.924865 104.276170 -0.648700 94.841299 -8.252288 -3.601946 -0.933326 -5.223383 -8.530254 24.560127 8.841384 18.967355 -29.455733 0.000000 -0.000000 0.000000 -6.350402 -0.590788 -46.315966 -1.748831 -7.782779 81.602675 6.454380 -13.037512 -9.300160 0.000000 -0.000000 0.000000 -1.494341 -7.193097 18.985775 1.115232 1.257492 -8.555080 1.056144 -2.352037 3.259557 -1.727434 -0.470703 -22.253462 -0.101502 6.193547 -1.741981 -25.221881 5.834468 -5.314643 -54.690189 -19.748752 13.113562 153.126401 -67.471457 -134.031412 17.746640 -12.418154 -22.489089 24.191324 -8.859004 -1.824496 51.175696 -13.305512 20.109650 -43.365623 83.344035 -30.978974 -10.357513 18.242848 -12.833272 
0.198907 -0.063338 0.939266 105.755195 1.277214 96.094353 -4.375392 -0.155451 7.840836 -4.794359 -11.937118 20.327370 1.047971 15.262673 -20.044220 0.000000 -0.000000 0.000000 -6.841788 0.627968 -51.390445 -2.670750 -10.271918 66.039095 7.458649 -10.262872 -10.215315 0.000000 -0.000000 0.000000 0.622551 -11.034778 16.900535 1.565081 1.040334 -8.150920 1.463353 -2.932772 2.743822 -2.593213 2.101982 -21.267217 -0.144682 7.179493 -1.835289 -23.607912 6.721896 -6.150663 -58.297050 -22.977160 14.897579 155.382553 -61.484182 -136.737766 19.066282 -12.267290 -26.753977 21.422091 -11.972682 -0.277491 50.672480 -14.776917 18.425833 -47.797151 87.812087 -33.365428 -11.097328 18.589318 -15.057570 
0.337230 -0.041290 0.956115 106.090795 2.275377 97.716379 -1.343199 0.675896 12.684287 -4.037053 -12.425896 18.836549 -6.116551 13.227682 -0.548588 0.000000 -0.000000 0.000000 -8.252356 2.383464 -52.550362 -2.647635 -12.743671 46.788452 10.531705 -7.325063 -2.822016 0.000000 -0.000000 0.000000 2.493009 -13.466529 13.110418 2.054674 0.688198 -6.085469 1.164554 -2.549322 1.470930 -3.656225 4.350008 -20.207465 -0.190357 6.949014 -2.107021 -22.935795 8.237186 -6.141378 -58.964379 -23.200164 16.810271 161.669209 -58.783912 -142.680600 17.236740 -14.332017 -30.438371 19.748478 -14.039797 2.298743 51.741792 -14.723423 16.762283 -119.212416 88.573435 -102.724387 -10.824427 18.544176 -16.409371 
0.475206 -0.016636 0.966375 105.544582 1.510054 98.282016 -3.566927 -1.856469 13.942109 -4.469050 -14.864434 25.361303 -1.484894 13.545402 7.636605 0.000000 -0.000000 0.000000 -9.217610 3.102921 -50.597224 -0.923731 -11.286036 31.451412 12.592620 -7.374940 2.143266 0.000000 -0.000000 0.000000 2.866377 -13.568852 10.204844 1.879144 0.246356 -5.195670 0.842788 -2.187657 1.538735 -4.808144 2.658531 -18.324593 0.621640 8.882780 -3.235592 -22.038875 9.045800 -5.144860 -58.647351 -21.314450 18.154318 169.589398 -59.952240 -148.794789 17.099771 -14.421770 -27.831312 18.340863 -14.527732 3.535301 54.223649 -14.984634 16.344474 -126.904188 86.447241 -110.160277 -9.864179 18.745301 -15.885425 
0.612617 0.004980 0.965476 105.435646 1.199250 96.671002 -4.689195 -4.226387 12.025077 -7.431399 -12.555082 41.096231 -0.449215 13.769766 1.948847 0.000000 -0.000000 0.000000 -7.728892 3.149485 -46.977150 -1.490624 -10.576433 29.233228 13.126279 -8.111196 4.330857 0.000000 -0.000000 0.000000 2.721759 -11.313936 10.399067 2.145835 -0.459922 -4.948441 0.463902 -2.428727 2.332172 -5.033887 2.451209 -17.678690 0.164442 8.371620 -3.143410 -21.468888 8.464375 -3.995250 -58.291036 -18.129265 19.034268 177.668502 -64.334937 -156.443268 16.074622 -14.446188 -27.278041 19.370241 -14.111163 2.672856 54.856952 -14.308700 16.228240 -126.843791 84.690274 -109.108678 -9.238251 18.717304 -13.858925 
0.748522 0.025970 0.952253 105.506803 0.914487 94.764872 -3.777252 -4.245804 6.999376 -8.741357 -7.772738 56.743213 0.707243 11.290400 -2.006900 0.000000 -0.000000 0.000000 -6.284191 4.319839 -42.412951 -0.435802 -7.281664 34.459805 8.349263 -6.238301 4.342697 0.000000 -0.000000 0.000000 2.171149 -8.815279 11.593471 2.683904 -0.508024 -4.113028 0.158861 -2.664028 1.973041 -4.813254 2.496446 -17.146181 -0.695311 7.037455 -2.442562 -22.332866 7.600532 -2.506721 -57.800377 -13.867197 19.135829 -173.817642 -70.878940 -165.484719 14.085345 -14.332182 -26.973650 21.483847 -12.487227 1.468164 54.479694 -12.249635 16.223879 -116.658267 83.521952 -98.451910 -8.245382 18.373313 -12.890843 
0.881099 0.045031 0.931969 105.262291 1.528979 93.224581 -0.438748 -2.798109 -0.971793 -8.061772 -2.015423 70.240040 2.108335 11.541664 -7.822222 0.000000 -0.000000 0.000000 -2.681415 5.603659 -37.108019 0.338273 -4.703804 45.312153 0.495834 -8.106655 -12.422407 0.000000 -0.000000 0.000000 2.192679 -6.445475 13.320408 3.182033 0.233905 -4.183818 -0.164654 -2.272258 1.752363 -3.747696 2.596576 -18.252567 -1.863679 5.244288 0.660562 -24.272082 7.030278 -2.415342 -56.203050 -8.718662 18.226944 -154.226104 -78.610130 174.354322 14.471846 -13.401582 -25.897906 24.772799 -9.357347 -0.577045 52.587407 -10.118488 16.097693 -98.013729 82.902165 -81.174438 -10.399772 17.820193 -14.643888 
1.005220 0.066611 0.918979 104.462764 1.761690 94.211157 2.839283 -2.969903 -13.931867 -6.783903 5.468138 78.660077 3.787007 11.879472 -13.337986 0.000000 -0.000000 0.000000 -0.474637 6.356487 -31.963853 0.432703 -4.089602 50.609203 -0.987781 -10.179527 -21.149888 0.000000 -0.000000 0.000000 2.236778 -3.567848 13.075511 3.675958 1.081516 -3.551309 -0.616292 -1.287142 0.696172 -2.490886 2.895487 -20.478777 -3.631165 3.432751 3.505962 -27.426565 7.190184 -2.420278 -54.214604 -4.283028 17.192923 -90.109434 -84.143136 109.590098 14.994985 -13.641580 -22.401634 28.549170 -6.214081 -0.679102 49.429947 -4.414488 16.709083 -74.928893 80.000129 -57.815802 -12.424119 17.331570 -13.300969 
1.134305 0.093835 0.919797 103.796681 0.877256 92.995312 3.675108 -1.542557 -23.255789 -5.382043 10.971037 78.348000 3.766379 11.098423 -18.282652 0.000000 -0.000000 0.000000 0.402751 2.533522 -20.009669 0.432429 -2.202059 48.908228 -0.226494 -7.098704 -26.406488 0.000000 -0.000000 0.000000 1.544000 0.240496 14.868786 3.639974 0.370319 -3.585959 -0.876809 -0.113145 -0.046178 -0.988399 3.891651 -20.441329 -5.283044 0.777361 2.616278 -28.025734 8.426561 -1.527284 -52.934208 1.112751 15.402797 -67.362419 -81.873555 88.877614 14.630030 -12.913340 -20.177840 28.310012 -4.405188 -0.831140 49.132054 0.786744 17.035382 -86.156616 79.760172 -66.668992 -11.282366 16.429808 -13.660914 
1.267909 0.123455 0.928013 102.441504 -0.403780 92.554080 3.783746 -0.147858 -30.172269 -5.685043 16.813771 68.871440 3.310306 9.498405 -21.716911 0.000000 -0.000000 0.000000 -1.498558 -2.196358 -8.501543 0.660809 0.679975 44.774008 3.353958 -1.208737 -23.284961 0.000000 -0.000000 0.000000 1.030764 4.543024 15.121746 2.700556 0.150306 -4.319627 -1.450007 1.788539 -0.402410 -0.411414 2.877151 -18.978424 -4.520589 -1.910201 2.001160 -25.783164 9.916988 -0.549634 -50.132508 6.834975 16.017155 -98.467658 -78.518414 118.008974 15.200359 -13.368491 -24.697040 24.997186 -4.693950 -1.383518 53.137444 2.400380 17.290556 -129.635704 77.423226 -111.793580 -12.179342 16.042782 -18.020003 
